<svg xmlns="http://www.w3.org/2000/svg" xmlns:xlink="http://www.w3.org/1999/xlink" width="150" height="150" viewBox="0 0 150 150">
  <defs>
    <style>
      .cls-1 {
        fill: #fff;
      }

      .cls-2 {
        clip-path: url(#clip-logo-icon-1);
      }

      .cls-3 {
        clip-path: url(#clip-path);
      }
    </style>
    <clipPath id="clip-path">
      <rect id="Rectangle_525" data-name="Rectangle 525" class="cls-1" width="92.425" height="86.511"/>
    </clipPath>
    <clipPath id="clip-logo-icon-1">
      <rect width="150" height="150"/>
    </clipPath>
  </defs>
  <g id="logo-icon-1" class="cls-2">
    <g id="icon" transform="translate(13.999 4.999)">
      <path id="_1" data-name="1" class="cls-1" d="M67.094,9.622,37.021.38a8.611,8.611,0,0,0-5.044,0L1.9,9.619a2.539,2.539,0,0,0,0,4.916l5.243,1.611A8.5,8.5,0,0,0,5.22,21.2a3.328,3.328,0,0,0-.275,5.717L2.193,39.307a1.725,1.725,0,0,0,1.683,2.1H9.925a1.725,1.725,0,0,0,1.684-2.1L8.856,26.92a3.319,3.319,0,0,0-.194-5.663,5.086,5.086,0,0,1,2.23-3.959l21.084,6.481a8.62,8.62,0,0,0,5.044,0l30.073-9.239a2.539,2.539,0,0,0,0-4.917ZM38.035,27.077a12.066,12.066,0,0,1-7.071,0l-15.635-4.8.359,14.094c0,3.812,10.1,4.617,21.528,4.617a33.647,33.647,0,0,0,3.567-.2c9.738-1,17.914-6.406,17.914-9.844L53.67,22.273Z" transform="matrix(0.966, 0.259, -0.259, 0.966, 41.359, 0)"/>
      <g id="Group_947" data-name="Group 947" transform="translate(15.255 46.357)">
        <g id="Group_947-2" data-name="Group 947" class="cls-3">
          <path id="Path_758" data-name="Path 758" class="cls-1" d="M95.4,47.581a28.608,28.608,0,0,0-3.6,3.3,41.632,41.632,0,0,0-4.369,5.092A40.7,40.7,0,0,0,84.164,62.2a37.125,37.125,0,0,0-1.655,5.018,32.518,32.518,0,0,0-.866,3.879c-.252,1.636.046,2.344,1.528,2.344,1.534,0,3.068.013,4.6-.018a.732.732,0,0,0,.566-.376c.532-2.123.877-4.305,1.565-6.374a23.134,23.134,0,0,1,2.556-5.667,32.836,32.836,0,0,1,5.209-6.131,28.189,28.189,0,0,1,7.022-4.809,32.736,32.736,0,0,1,8.96-2.447,22.669,22.669,0,0,1,5.946-.009,30.45,30.45,0,0,1,5.155,1.044,26.449,26.449,0,0,1,6.906,3.428,28.078,28.078,0,0,1,6.276,5.454,33.03,33.03,0,0,1,4.484,7.44A15.6,15.6,0,0,1,144,71.465c0,1.119-1.361,1.278-1.893,1.22a2.637,2.637,0,0,1-2.173-1.16c-.691-1.538-.887-3.477-1.739-5.244a29.107,29.107,0,0,0-5.6-8.071,24.13,24.13,0,0,0-7.246-4.606,23.045,23.045,0,0,0-7.022-1.778,21.763,21.763,0,0,0-11.764,2.139,25.523,25.523,0,0,0-6.738,4.547,30.6,30.6,0,0,0-4.325,5.5,20.721,20.721,0,0,0-2.528,6.954,21.667,21.667,0,0,0-.315,6.277,24.662,24.662,0,0,0,1.581,7.083,20.944,20.944,0,0,0,4.319,6.653,28.3,28.3,0,0,0,7.989,5.861,29.165,29.165,0,0,0,9.884,2.353c2.532.183,5.206-.668,7.717-1.4a18.707,18.707,0,0,0,5.533-2.585,20.577,20.577,0,0,0,5.243-4.945,39.489,39.489,0,0,0,4.652-8.717,2.011,2.011,0,0,1,2.515-1.223c1.745.321,1.692,1.433,1.585,2.048a17.7,17.7,0,0,1-1.744,4.95c-1,1.952-2.332,3.733-3.417,5.646a1.689,1.689,0,0,0,.077,1.542A42.777,42.777,0,0,0,142.007,98c.249.232,1.015.37,1.1.244a44.056,44.056,0,0,0,4.089-6.225,62.542,62.542,0,0,0,3.555-9.512,28.186,28.186,0,0,0,.855-6.632,40.124,40.124,0,0,0-.531-5.744,21.875,21.875,0,0,0-.974-4.486,43.734,43.734,0,0,0-2.945-6.67A38.078,38.078,0,0,0,142.4,52.1a57.177,57.177,0,0,0-6.927-6.017,7.262,7.262,0,0,0-3.286-1.538c-3.844-.533-7.726-.784-11.583-1.226-3.556-.408-6.689-2.9-10.472-2.2a26.8,26.8,0,0,0-4.424,1.081,53.02,53.02,0,0,0-5.847,2.609A31.443,31.443,0,0,0,95.4,47.581M118.5,86.011c-.083,1.334-.84,2.2-2.118,1.92a2.4,2.4,0,0,1-2-2.067c-.125-1.388.3-2.477,1.676-2.477a2.254,2.254,0,0,1,2.439,2.624m1.769-12.563a8.038,8.038,0,0,0-1.779,3.713c-.238.974-.225,1.924-.6,1.922a5.755,5.755,0,0,1-3.127-1.176,3.055,3.055,0,0,1-.4-2.317A9.332,9.332,0,0,1,116.2,71.4c.567-.854,2.366-3.035,2.464-3.795.166-1.293-.8-2.028-2.227-1.984-1.377.043-1.877,1.037-2.219,2-.356,1.006-.574,1.71-1.148,2.019a2.839,2.839,0,0,1-2.366-.08,2.58,2.58,0,0,1-.736-2.715,8.282,8.282,0,0,1,1.765-3.72,5.972,5.972,0,0,1,6.662-1.616,6.279,6.279,0,0,1,4.682,6.272c.053,2.381-1.172,4.032-2.8,5.663" transform="translate(-70.269 -35.317)"/>
          <path id="Path_759" data-name="Path 759" class="cls-1" d="M43.952,138.523c0-.166-.164-.355-1.186-.535-2.561-.449-4.26-.6-6.776-1.253a37.422,37.422,0,0,1-4.924-1.619,37.8,37.8,0,0,1-4.974-2.568,37.128,37.128,0,0,1-5.186-3.976,50.758,50.758,0,0,1-8.068-9.132,34.686,34.686,0,0,1-3.871-7.606,28.222,28.222,0,0,1-1.8-7.284,45.558,45.558,0,0,1-.044-9.5,42.264,42.264,0,0,1,1.692-8.162A37.839,37.839,0,0,1,12,79.6c1.469-2.395,3.028-4.543,4.664-6.838a.676.676,0,0,0-.041-.646c-1.243-1.292-2.491-2.581-3.8-3.805-.3-.282-.959-.742-1.418-.221a38.645,38.645,0,0,0-4.394,6.131A57.524,57.524,0,0,0,2.8,82.608,40.671,40.671,0,0,0,.438,91.346,45.835,45.835,0,0,0,.1,100.828a64.337,64.337,0,0,0,1.517,10.03,38.518,38.518,0,0,0,2.558,7.267,43.22,43.22,0,0,0,3.46,5.992,38.5,38.5,0,0,0,4.286,5.7,79.643,79.643,0,0,0,7.159,6.325,29.965,29.965,0,0,0,4.848,3.135,54.176,54.176,0,0,0,6.208,2.761,52.549,52.549,0,0,0,6.617,2.049,53.222,53.222,0,0,0,6.305.881,1.134,1.134,0,0,0,.863-.7,21.941,21.941,0,0,0,.041-2.728c0-1,.012-2.007-.014-3.009" transform="translate(0 -58.455)"/>
          <path id="Path_760" data-name="Path 760" class="cls-1" d="M128.492,336.193a36.332,36.332,0,0,0,4.837-2.294c1.82-1.045,3.547-2.256,5.277-3.45.352-.243.82-.993.75-1.071-1.2-1.332-2.471-2.607-3.755-3.863-.275-.269-.816-.671-.993-.573-2.612,1.438-5.067,3.23-7.8,4.362a25.378,25.378,0,0,1-8.159,2.066,23.077,23.077,0,0,1-5.358-.292,39.074,39.074,0,0,1-8.724-2.446,24.421,24.421,0,0,1-6.862-4.569A40.9,40.9,0,0,1,92,316.882,20.706,20.706,0,0,1,88.574,306.3a1.182,1.182,0,0,0-.831-.766,24.608,24.608,0,0,0-2.764-.037,19.933,19.933,0,0,0-2.555.038c-.3.04-.861.2-.861,1.292a15.327,15.327,0,0,0,.453,3.818,36.558,36.558,0,0,0,2.425,6.921,33,33,0,0,0,5.073,8.085,50.779,50.779,0,0,0,9.078,7.824,31.972,31.972,0,0,0,8.538,3.7,33.743,33.743,0,0,0,9.32,1.33,28.7,28.7,0,0,0,7.469-.971,32.9,32.9,0,0,0,4.571-1.343" transform="translate(-70.269 -263.172)"/>
          <path id="Path_761" data-name="Path 761" class="cls-1" d="M389.931,305.418H389a14.869,14.869,0,0,0-2.553.043,1.6,1.6,0,0,0-1.108.922c-.4,2.038-.551,4.125-.989,6.152a27.482,27.482,0,0,1-1.615,5.31,37.327,37.327,0,0,1-3.566,6.69,58.3,58.3,0,0,1-6.476,7.635,30.052,30.052,0,0,1-6.748,5.152,68.255,68.255,0,0,1-10.452,4.33c-2.045.684-4.324.653-6.483,1.025a1.263,1.263,0,0,0-.845.846,41.042,41.042,0,0,0,.015,5.079,1.545,1.545,0,0,0,1.157.986,38.806,38.806,0,0,0,5.448-.827,58.277,58.277,0,0,0,7.537-2.138,40.034,40.034,0,0,0,7.586-3.682,59.753,59.753,0,0,0,8.991-6.958,52.736,52.736,0,0,0,6.409-8.144,46.63,46.63,0,0,0,3.414-6.433,27.126,27.126,0,0,0,1.543-4.241c.568-2,1.019-4.042,1.471-6.077a22.662,22.662,0,0,0,.392-2.655c.164-2.714.436-3.017-2.193-3.017" transform="translate(-299.889 -263.095)"/>
          <path id="Path_762" data-name="Path 762" class="cls-1" d="M504.107,41.858c.263.229.331.277.65.562a72.009,72.009,0,0,1,5.142,5.122,28.374,28.374,0,0,1,3.694,4.732,63.662,63.662,0,0,1,3.447,7.247,31.6,31.6,0,0,1,1.759,5.362c.387,1.742.372,3.571.672,5.338a1.627,1.627,0,0,0,1.1,1,13.646,13.646,0,0,0,2.551.046,12.217,12.217,0,0,0,2.378-.046c.386-.078.96-.631.96-.969a35.379,35.379,0,0,0-.332-3.889,14.427,14.427,0,0,0-.331-2.011c-.451-1.736-.905-3.474-1.444-5.184a34.573,34.573,0,0,0-1.692-4.658c-.95-1.971-2.071-3.865-3.208-5.737a39.356,39.356,0,0,0-2.981-4.385,57.371,57.371,0,0,0-4.328-4.708c-.583-.574-1.611-1.364-2.158-1.189A54.069,54.069,0,0,0,504.209,41c-.362.165-.669.364-.1.858" transform="translate(-434.031 -33.139)"/>
          <path id="Path_763" data-name="Path 763" class="cls-1" d="M112.459,9.677c.6.582,1.078,1.385,2.147.5a33.485,33.485,0,0,1,5.044-3.707c2.412-1.334,5.015-2.322,7.528-3.477a2.973,2.973,0,0,0,.611-.517,29.583,29.583,0,0,0-4.03-2.444c-.444-.19-1.326.65-2.01,1.014a.757.757,0,0,1-.324.113c-1.922.007-3.843,0-5.765,0a4.857,4.857,0,0,0-1.14.158,15.3,15.3,0,0,0-4.723,3.14c-.41.391-1.626.924-.446,2.1,1.043,1.035,2.058,2.1,3.11,3.124" transform="translate(-93.774 0)"/>
        </g>
      </g>
    </g>
  </g>
</svg>
