<svg xmlns="http://www.w3.org/2000/svg" xmlns:xlink="http://www.w3.org/1999/xlink" width="300" height="150" viewBox="0 0 300 150">
  <defs>
    <style>
      .cls-1 {
        clip-path: url(#clip-logo-title-1);
      }

      .cls-2 {
        fill: #fff;
      }
    </style>
    <clipPath id="clip-logo-title-1">
      <rect width="300" height="150"/>
    </clipPath>
  </defs>
  <g id="logo-title-1" class="cls-1">
    <path id="Union_27" data-name="Union 27" class="cls-2" d="M-5124.935-1023.965q-2.7-2.614-2.7-7.519v-15.193h6.677v14.663a6.074,6.074,0,0,0,.977,3.846,3.5,3.5,0,0,0,2.876,1.2,3.5,3.5,0,0,0,2.952-1.188,6.438,6.438,0,0,0,.917-3.889v-14.628h6.645v15.038q0,4.906-2.733,7.6t-7.881,2.691Q-5122.235-1021.35-5124.935-1023.965Zm-24.836-.734q-3.1-3.349-3.1-9.554,0-6.049,3.4-9.416t9.521-3.368a20.778,20.778,0,0,1,4.381.445,18.275,18.275,0,0,1,3.592,1.128l-2.1,5.3a12.834,12.834,0,0,0-5.836-1.333,5.512,5.512,0,0,0-4.5,1.922,8.414,8.414,0,0,0-1.589,5.495,8.525,8.525,0,0,0,1.438,5.341,4.952,4.952,0,0,0,4.146,1.837,12.013,12.013,0,0,0,2.726-.29v-3.914h-4.391v-5.213h10.615v13.466a28.754,28.754,0,0,1-9.5,1.5Q-5146.668-1021.35-5149.771-1024.7Zm-27.326,3a15.1,15.1,0,0,1-3.465-1.222v-6.016a19.6,19.6,0,0,0,3.953,1.547,14.51,14.51,0,0,0,3.767.556,3.613,3.613,0,0,0,2.17-.521,1.612,1.612,0,0,0,.69-1.341,1.5,1.5,0,0,0-.278-.9,3.239,3.239,0,0,0-.891-.777q-.613-.393-3.271-1.606a15.622,15.622,0,0,1-3.607-2.154,6.577,6.577,0,0,1-1.783-2.393,8.034,8.034,0,0,1-.581-3.2,6.445,6.445,0,0,1,2.472-5.383,10.78,10.78,0,0,1,6.8-1.932,18.814,18.814,0,0,1,7.788,1.794l-2.034,5.213a14.568,14.568,0,0,0-5.955-1.607,3.062,3.062,0,0,0-1.884.462,1.4,1.4,0,0,0-.59,1.144,1.662,1.662,0,0,0,.749,1.316,28.378,28.378,0,0,0,4.063,2.12,11.226,11.226,0,0,1,4.415,3.118,6.849,6.849,0,0,1,1.236,4.2,7.455,7.455,0,0,1-1.16,4.127,7.637,7.637,0,0,1-3.348,2.8,12.244,12.244,0,0,1-5.13,1A20.362,20.362,0,0,1-5177.1-1021.7Zm-127.934-2.931q-2.969-3.281-2.969-9.485a15.329,15.329,0,0,1,1.439-6.819,10.392,10.392,0,0,1,4.137-4.52,12.343,12.343,0,0,1,6.351-1.581,17.26,17.26,0,0,1,7.62,1.761l-2.036,5.315a22.566,22.566,0,0,0-2.726-1.094,9.358,9.358,0,0,0-2.926-.445,4.215,4.215,0,0,0-3.7,1.974,9.641,9.641,0,0,0-1.329,5.443q0,7.212,5.4,7.212a10.892,10.892,0,0,0,3.163-.462,31.4,31.4,0,0,0,3.079-1.111v5.708a16.8,16.8,0,0,1-6.964,1.384Q-5302.062-1021.35-5305.031-1024.631Zm238.812,2.94v-24.986h14.6v5.418h-7.956v3.93h7.367v5.418h-7.367v4.717h7.956v5.5Zm-24.592,0v-24.986h8.511q5.921,0,9.143,3.076t3.221,8.887q0,6.254-3.389,9.639t-9.53,3.384Zm6.643-5.538h1.481a5.316,5.316,0,0,0,4.44-1.786q1.413-1.785,1.414-5.459a8.035,8.035,0,0,0-1.337-5.093,4.907,4.907,0,0,0-4.062-1.658h-1.936Zm-17.948,5.538v-24.986h6.678v24.986Zm-86.386,0-5.214-9.092h-1.683v9.092h-6.645v-24.986h8.058q10.025,0,10.024,7.383a7.39,7.39,0,0,1-4.171,6.717l7.166,10.886Zm-6.9-14.167h1.246q3.481,0,3.481-3.128,0-2.582-3.414-2.58h-1.312Zm-24.861,14.167v-24.986h14.6v5.418h-7.956v3.93h7.367v5.418h-7.367v4.717h7.956v5.5Zm-18.217,0v-24.986h14.6v5.418h-7.957v3.93h7.368v5.418h-7.368v4.717h7.957v5.5Zm-9.084,0-5.215-9.092h-1.681v9.092h-6.645v-24.986h8.057q10.025,0,10.025,7.383a7.392,7.392,0,0,1-4.171,6.717l7.166,10.886Zm-6.9-14.167h1.244q3.483,0,3.482-3.128,0-2.582-3.415-2.58h-1.312Zm-15.88,14.167-1.211-4.682h-7.989l-1.246,4.682h-7.3l8.023-25.088h8.864l8.125,25.088Zm-5.844-18.1q-.445,2-1.977,7.878h5.231l-1.06-4.1q-.37-1.367-.9-3.538t-.7-3.109Q-5275.738-1041.789-5276.183-1039.789Zm211.067-14.9V-1073.9h-15.6v19.207h-13.5v-47.115h13.5v17.467h15.6v-17.467h13.5v47.115Zm-60.43,0V-1091.4h-12.136v-10.409h37.666v10.409h-12.1v36.706Zm-41.36,0v-47.115h13.428v36.835h19.137v10.28Zm-20.753,0-2.447-8.829h-16.146l-2.517,8.829h-14.753l16.215-47.308h17.916l16.419,47.308Zm-11.812-34.128q-.9,3.771-4,14.857h10.572l-2.141-7.734q-.749-2.578-1.82-6.671t-1.411-5.865Q-5198.571-1092.589-5199.47-1088.82Zm-57.585,34.128v-47.115h29.507v10.216h-16.079v7.412h14.889v10.216h-14.889v8.895h16.079v10.376Zm-21.846,0V-1073.9h-15.6v19.207H-5308v-47.115h13.5v17.467h15.6v-17.467h13.5v47.115Z" transform="translate(5329.349 1135.691)"/>
  </g>
</svg>
