<svg xmlns="http://www.w3.org/2000/svg" xmlns:xlink="http://www.w3.org/1999/xlink" width="400" height="200" viewBox="0 0 400 200"><defs><clipPath id="b"><rect width="400" height="200"/></clipPath></defs><g id="a" clip-path="url(#b)"><path d="M20.157,11.991c2.433-.446,3.764-1.768,3.387-3.834-.368-1.917-1.987-2.8-4.5-2.363l-3.466.586,1.1,6.2,3.466-.586ZM18.906,7.273c1.4-.219,2.284.149,2.5,1.252.219,1.252-.3,1.847-1.917,2.136l-.954.149-.586-3.387Z" transform="translate(-1.937 30.291)" fill="#fff"/><path d="M33.447,9.558l-.219-1.4L28.8,8.971,28.581,7.79l3.912-.735L32.265,5.8l-3.9.735-.219-1.1,4.271-.814L32.2,3.37,25.78,4.552l1.1,6.188Z" transform="translate(-3.209 30.58)" fill="#fff"/><path d="M39.7,8.532c2.433-.446,3.317-1.549,3.02-3.317L42.052,1.6l-2.066.368.665,3.685c.149.814-.149,1.252-1.182,1.47S38,6.974,37.851,6.169l-.665-3.685-2.066.368.665,3.615c.3,1.768,1.47,2.5,3.9,2.066Z" transform="translate(-4.375 30.8)" fill="#fff"/><path d="M24.435,133.173,26.5,134.5l-2.661,4.052,1.777,1.182,2.652-4.052,2.066,1.322.735-1.182L25.24,132.07Z" transform="translate(-2.968 14.522)" fill="#fff"/><path d="M106.622,12.438c1.768.3,3.615.149,3.834-1.47.219-1.1-.884-1.7-1.987-2.214-1.1-.446-2.284-.735-2.136-1.252.07-.446.665-.446,1.1-.368.665.07,1.33.446,1.182.954l2.066.368c.219-1.4-1.252-2.284-2.871-2.582-1.47-.3-3.387-.07-3.615,1.33-.219,1.1.954,1.768,2.066,2.214s2.214.735,2.136,1.33c-.07.446-.735.516-1.4.368-.884-.149-1.4-.516-1.33-1.252L103.6,9.5c-.368,1.768,1.182,2.652,3.02,2.95Z" transform="translate(-12.913 30.281)" fill="#fff"/><path d="M104.861,129.553,107,132.8l-4.49-1.7-1.847,1.182,3.387,5.234,1.7-1.112-2.136-3.238,4.5,1.689,1.838-1.173-3.387-5.234Z" transform="translate(-12.552 14.974)" fill="#fff"/><path d="M22.265,131.828l.744-1.1-5.461-3.545-3.387,5.234,5.523,3.615.744-1.182-3.764-2.433.6-1.033,3.317,2.144.656-1.033-3.317-2.136.6-.963Z" transform="translate(-1.76 15.132)" fill="#fff"/><path d="M74.73,1.847l.884,5.006,1.619.3,2.512-4.42-.814,4.639,1.987.368,1.112-6.188-3.1-.516L76.8,4.866,76.051.516,72.962,0,71.85,6.2l2,.368Z" transform="translate(-8.958 31)" fill="#fff"/><path d="M91.014,8.159l-4.42-.805.219-1.182,3.912.665.219-1.26-3.9-.656.219-1.112,4.271.744.228-1.26-6.415-1.1-1.1,6.2,6.485,1.173Z" transform="translate(-10.503 30.727)" fill="#fff"/><path d="M47.868,4.249c1.182.07,2.363-.07,2.433.516.07.446-.516.735-1.182.884-.884.149-1.549.07-1.7-.665l-2.066.368c.3,1.549,2.066,1.917,3.9,1.549,1.768-.3,3.387-1.1,3.1-2.731-.219-1.1-1.47-1.33-2.652-1.33-1.182-.07-2.363.07-2.5-.368-.07-.368.446-.586.884-.735.665-.149,1.33-.07,1.4.516l2.066-.368c-.219-1.4-1.987-1.7-3.536-1.4-1.47.3-3.168,1.1-2.95,2.433C45.435,4.021,46.686,4.249,47.868,4.249Z" transform="translate(-5.614 30.953)" fill="#fff"/><path d="M97.029,10.722c2.433.446,3.685-.3,3.982-2.066l.665-3.615-2.066-.368-.665,3.685c-.149.814-.586,1.1-1.619.954S96,8.648,96.145,7.842l.665-3.685L94.744,3.79,94.079,7.4C93.712,9.251,94.666,10.275,97.029,10.722Z" transform="translate(-11.722 30.527)" fill="#fff"/><path d="M95.156,135.688l1.1,4.28-3.466-2.731-2.573,1.7,3.387,5.234,1.7-1.1-2.582-3.982,4.052,3.02,1.33-.884-1.182-4.936,2.582,3.982,1.7-1.112-3.4-5.234Z" transform="translate(-11.25 14.291)" fill="#fff"/><path d="M109.17,127.1l3.387,5.234,1.768-1.182-3.387-5.234Z" transform="translate(-13.614 15.29)" fill="#fff"/><path d="M84.363,142.971c-2.136,1.4-2.582,3.387-1.549,4.936.954,1.549,3.02,1.917,5.164.516s2.582-3.387,1.549-4.936S86.508,141.5,84.363,142.971Zm2.8,4.28a1.754,1.754,0,0,1-2.582-.516,1.71,1.71,0,0,1,.586-2.582,1.843,1.843,0,1,1,2,3.1Z" transform="translate(-10.259 13.275)" fill="#fff"/><path d="M100.381,28.619c-.07-.219-.3-.07-.516-.149-.884.586-1.987.814-2.731,1.7a115.918,115.918,0,0,0-12.9,6.337c-.735.735-2.214.516-2.363,1.768a.827.827,0,0,0,.586.219c1.619-.665,17.548-8.77,17.916-9.881Z" transform="translate(-10.208 27.448)" fill="#fff"/><path d="M103.653,68.666a41.5,41.5,0,0,1-8.035-16.218c-1.252-4.718-1.033-8.77,2.433-11.352,5.164,6.634,11.282,1.47,11.282-3.466,0-7.6-12.455-12.017-14.083-22.782-11.8,3.466-24.332,2.5-39.517-7.518C40.549,17.351,28.015,18.244,16.217,14.848,14.6,25.684,2.135,30.034,2.135,37.7c0,4.936,6.118,10.1,11.282,3.466,3.834,2.95,3.764,6.634,2.433,11.352A44.068,44.068,0,0,1,7.815,68.736C1.478,69.55.078,75,0,80.307c-.149,7.151,2.066,17.47,12.236,26.467,12.455,11.054,29.487,10.984,43.569,31.552,14.6-20.638,31.4-20.5,43.788-31.552A33.979,33.979,0,0,0,111.46,80.6c0-5.3-1.4-11.133-7.816-11.938ZM99.3,36.817a12.64,12.64,0,0,0-2.8,2.136,23.328,23.328,0,0,0-2.284,4.2l-.586.219s.446-3.317,2.136-4.936a7.371,7.371,0,0,1,3.764-1.917l-.219.3Zm2.5,2.8c.368.149.149.665.219,1.033a.492.492,0,0,1-.735.3c-.665-.219-.814-.814-1.182-1.252.446-.665.814-2.284,1.917-1.4,0,.446-.516.814-.219,1.33Zm-1.47-10.765a33.2,33.2,0,0,1,5.164,5.015c2.731,3.536,1.182,8.919-2.871,7.518l-.219-.735s3.317-1.549,1.549-3.834c-1.768-2.214-6.2-4.28-9.435.219-4.131,5.75-5.234,16.437,3.982,30.668,0,0,.735.884.219,1.33-.516.368-.884.3-1.7-.665-.814-.884-6.932-8.919-8.919-16.586-2.136-8.332,1.033-18.8,10.468-20.866A22.226,22.226,0,0,1,95.26,27.3a29.6,29.6,0,0,1-2.284-4.569l.735-.516c.07-.07,3.247,6.118,6.634,6.634Zm-21.82,81.826-2.731,1.252s-1.4-.954-2.5-1.549a6.977,6.977,0,0,0-2.5-.665l.368-2.066c1.033-1.33,3.466-.954,3.466-.954.884.149,1.1-.516.368-1.1a7.7,7.7,0,0,0-1.7-1.033A7.225,7.225,0,0,1,76.451,99.4a7.553,7.553,0,0,1,7.6-.219,7.355,7.355,0,0,0-4.717,3.9C77.86,106.249,78.516,110.678,78.516,110.678ZM17.845,88.193c-.954,3.9.368,9.733,2.731,15.115a20.176,20.176,0,0,1-4.2-4.718c-2.582-4.936-1.987-11.054,0-14.083,2.8-4.052,5.969-3.833,7.3-1.033s-2.214,5.015-3.1,3.764a1.722,1.722,0,0,1,.3-2.284s-2.066-.665-3.02,3.247Zm3.764,1.033c2.652.149,1.619,2.214,1.768,3.834a5.7,5.7,0,0,0,1.47,3.1s-1.033-3.168.446-4.788,4.718-2.433,4.718-2.433S29.2,87.09,26.4,87.466c0,0,.665-1.619-1.033-4.42a6.366,6.366,0,0,0-3.982-3.168s.665-2.066-.516-3.247c0,0,1.987-1.619,3.764-.814a4.576,4.576,0,0,1,2.284,2.731,5,5,0,0,1,2.363-.446,10.07,10.07,0,0,1,3.9.884,3.807,3.807,0,0,0-2.066-2.433,3.543,3.543,0,0,0-3.317-.219,3.784,3.784,0,0,0-2.5-2.652,6.332,6.332,0,0,0-5.453.884l-3.685-1.182s5.75-10.249,6.783-13.12l5.3-2.582.586.884s-.07.665-.07,1.4c0,.665,2.284,4.936,2.284,5.3,0,0-4.28,4.42-5.164,5.3-.954.884-.516,1.847.586.665,1.1-1.1,5.234-4.718,5.234-4.718,2.284,2.214,6.2,6.415,8.253,7.6l-3.685,7.369c-.516,1.1.149,1.47.586.814s3.466-6.2,4.5-7.448a8.478,8.478,0,0,1,6.118,3.982s-2.214,1.619-4.866,3.247-4.28,2.136-5.82,3.168a7.021,7.021,0,0,0-5.9-3.764c-4.131-.149-3.536,2.433-3.536,2.433s1.619-.219,3.685-.3a5.822,5.822,0,0,1,3.685,1.4s-2.214.3-3.02,1.47c0,0,3.536.3,4.936,2.731s-1.768,6.932-1.768,6.932,3.387.665,3.982,2.871-2.363,4.42-2.363,4.42a5.691,5.691,0,0,0-3.1-5.75c-3.685-1.847-7.3,1.4-7.3,1.4s3.982-1.847,6.048.516.07,7.6.07,7.6a4.853,4.853,0,0,1,3.982-1.847,9.712,9.712,0,0,1,4.866,1.917s2.652-2.136,4.569-1.1a9.053,9.053,0,0,1,2.731,1.917v2.284l1.182.07a4.605,4.605,0,0,1-1.182,2.95,24.2,24.2,0,0,1-4.569,3.02A96.078,96.078,0,0,0,34.65,111.4c-3.685-1.619-7.3-3.536-7.3-3.536A28.532,28.532,0,0,1,21.381,97.7c-.954-3.247-2.433-8.551.219-8.481Zm26.835-53v.586H35.175s-12.6-2.284-13.487-2.731a20.727,20.727,0,0,0-5.531-3.685c1.4-1.1,3.387-4.788,4.28-7.965,4.936.814,9,1.7,15.334.586,1.252,1.47,12.682,13.2,12.682,13.2ZM37.31,22.655c2.582-.954,5.68-1.7,7.081-2.433.665.516,4.052,6.048,4.052,6.048v8.551S37.905,23.391,37.31,22.655ZM33.844,37.989v4.647s-5.6,0-7.965-.149a12.916,12.916,0,0,0-1.4-4.28c-.735-1.4-1.47-2.214-1.619-2.652C23.814,35.556,33.844,37.989,33.844,37.989Zm-7.816,5.6,7.6.149.149.3v3.615s-5.68,1.847-6.7,2.284c-.368-.07-1.1.516-1.182,0a29.064,29.064,0,0,0,.149-6.337Zm-.446,8.183c2.136-1.33,4.788-1.47,7.151-2.363h1.033v2.652h2.363S32.96,53.98,32.444,53.91a4.336,4.336,0,0,0-3.685,2.284,41.1,41.1,0,0,1-5.234,2.284,47.9,47.9,0,0,0,2.066-6.7Zm13.12-4.28V41.963H53v-11.8h5.531v11.8h14.3v5.531h-14.3V76.246L53,71.966V47.494H38.7ZM76.74,90.1c-1.252,2.652-.516,5.82-.219,6.853a7.287,7.287,0,0,0-1.549,1.182,13.819,13.819,0,0,0-2.5,4.131s-3.9-2.363-15.7-14.967C54.7,85.086,48.286,76.465,44.68,74.4c-1.182-.446-2.652-1.4-3.834-1.987-.446-.219-2.582-1.7-3.615-2.433-.665-.516-3.466-3.247-4.28-5.164A32.236,32.236,0,0,1,30.737,61.2c-.149-.446-.884-1.182-.07-1.47s2.363,2.95,3.168,3.168c.219-.149.446-.368.368-.586-.368-.586-3.9-3.9-3.168-4.5.368-.3.814.07,1.33.665.884.954,1.768,1.987,2.582,2.871.219.368.586.3.665,0-.735-1.033-2.363-2.95-2.731-3.387-.3-.446-1.847-1.7-1.1-2.284s1.7.954,2.284,1.7c.884,1.033,2.284,2.731,2.8,2.433-.516-1.182-3.9-3.685-2.95-4.42.665-.516.884.07,1.47.665.665.586,2.284,2.284,2.731,2.731.814,1.1,2.731,1.847,2.433,3.466-.735.954-2.433,1.847-2.652,3.02a1.185,1.185,0,0,0,.884,1.033c1.1.665,2.433-.954,2.95.735-.07.219-.149.516.219.665.149.07.3-.149.3-.3.219-1.33-1.033-2.652.07-3.685-.219-.884.368-1.987.149-3.168.149-.586-.3-1.917.446-2.433.368-.219,1.1-.07,1.252,1.033s.665,4.35,1.917,5.234a5.5,5.5,0,0,1,1.768,2.652A8.629,8.629,0,0,1,48,71.091c.586.814,1.619-.07,2.284.586,5.82,4.5,19.982,14.818,26.467,18.432Zm-.586-66.719a44.48,44.48,0,0,0,8.7.149A38.959,38.959,0,0,0,91.12,22.5s1.47,3.615,2.214,5.015A16.828,16.828,0,0,0,95.4,30.384l-4.866,3.1L78.149,36.8H63.261v-.954l12.9-12.455Zm-12.9,11.133v-8.4s4.35-5.164,4.718-5.383a30.788,30.788,0,0,0,6.048,2.136C73.5,23.9,63.252,34.515,63.252,34.515Zm13.934,17.47c-.368-.07.954,0,.954,0V48.37s7.151,1.4,8.253,2.433c0,.516-.586.516-.954.368C83.374,50.286,77.921,54.706,77.186,51.984Zm6.337,1.1c.07.3-.3.735-.665.884a9.089,9.089,0,0,0-2.8,1.47c-.516-.07-1.182.814-1.619.219-.07-.814.954-.884,1.033-1.7a8.2,8.2,0,0,1,2.8-1.182,1.065,1.065,0,0,1,1.252.3Zm1.768-4.131c-.884-.446-6.634-2.214-7.081-2.284V43.941c1.033-.665,5.234-.884,7-.446a19.279,19.279,0,0,0,.07,5.453Zm.954-9.286c-.446,1.4-.814,2.652-.814,2.652s-7.081.368-7.3-.446c.07-.954,0-2.284,0-3.387.884-.814,10.1-4.052,11.054-3.466-.3.516-2.284,2.5-2.95,4.647ZM76.661,55.888c.516.516-.446.735-.446,1.33-.07,1.033-1.33,1.7-.954,2.95-.586,1.033.219,1.917-.586,2.871.149.3,0,.735.149,1.033.954-.219,1.549-1.768,2.582-.735.586-.07.665-.735,1.033-1.033.446-.586-.586-1.033.07-1.549-.07-.3.149-.446-.149-.735-.368.219-.735-.149-1.033-.3a1.458,1.458,0,0,1-.149-1.549c.954-1.252,4.647-2.871,5.969-3.615a9.581,9.581,0,0,1,2.731-1.252c.368-.07.814.07.814.368-.07,1.033-2.5,1.7-4.28,2.8-.665.586-1.768.665-2.214,1.549.219.814,1.033.3,1.47,0a25.569,25.569,0,0,1,2.363-1.47c.954-.516,2.582-1.768,3.02-.884s-2.363,2.066-3.615,2.95c-.814.735-2.731.814-2.5,2.284.07.149.3.07.446.07a17.161,17.161,0,0,1,3.387-2.066c.586-.3.954-.665,1.252,0-.735,2.871-4.647,2.433-5.82,5.164a34.164,34.164,0,0,0-2.284,3.1,4.068,4.068,0,0,1-3.1,1.768l-2.5.586a4.626,4.626,0,0,0-1.987,1.7l-1.4,1.987a36.5,36.5,0,0,1-.07-5.68c.586-.586,1.847-6.783,2.066-7.221.586-1.917,2.8-2.582,4.052-3.764.665-.586.814-1.33,1.7-.665ZM88.013,58.1S90.3,61.866,91.627,64a62.129,62.129,0,0,0,5.085,6.2s-1.182,2.95-.884,3.9c0,0-2.582-.3-3.615,1.182a10.979,10.979,0,0,0-1.4,3.9s-2.363-.149-3.615,1.1a12.291,12.291,0,0,0-2.214,3.764,12.721,12.721,0,0,0-7.151,4.28c-.735-.368-3.247-1.7-4.35-2.363l-1.619-.954a10.186,10.186,0,0,0-.07-2.214c-.07-1.549-.07-6.783-.149-9.286,1.1,1.619,3.168,4.718,3.168,4.718.516.735,2.871,4.569,3.685,5.531s1.1.149.665-.368C78.718,82.95,72.6,72.045,72.6,72.045c-.516-1.252-.07-1.47.586-1.47,0,0,3.615-.149,5.164-2.066,0,0,5.6,6.267,6.267,7.081s1.1-.149.516-.665c-.516-.516-6.048-7.081-6.048-7.081s1.917-3.466,3.247-4.28c1.252.814,3.168,2.8,4.131,3.466s.814-.219.3-.516S83.3,63.047,83.3,63.047s5.164-3.834,4.718-4.936ZM70.762,84.342a8.664,8.664,0,0,1-1.47-.884c-.07-3.02-.149-4.788-.149-6.932a4.051,4.051,0,0,0,1.33-1.47c.3,4.936.149,7.816.3,9.286Zm3.387-29.854c-.3-.3-1.619-1.549-2.652-2.5H75.33a15.736,15.736,0,0,1,.665,1.7c-.516.219-1.182.586-1.847.814Zm-1.1,1.033a24.573,24.573,0,0,1-2.363,1.987c-.735-.884-4.131-4.569-4.936-5.6H69.58c.446.516,2.95,3.247,3.466,3.615ZM69.58,58.391a2.456,2.456,0,0,1-.3,1.768c-.665,2.731-.884,4.42-.884,4.42l-5.164-9.067V51.9h.884c0,.07,4.2,4.42,5.453,6.485ZM67.663,82.425l-1.549-.954s.07-1.252.149-2.214c.219-2.731-.149-7.6-.07-10.319a8.054,8.054,0,0,1,1.182-.814l.219,2.136c0,3.387.07,6.267.07,9.514-.07.954,0,2.652,0,2.652ZM67,65.542c.149,1.4-1.1,1.33-2.214,2.214-.3.149-1.33.884-1.549.665V59.573c.665.219,3.247,5.015,3.764,5.969Zm-1.7,3.764c-.3,2.731.219,8.849-.149,11.5-.446-.3-1.917-1.252-1.917-1.252V70.417a13.509,13.509,0,0,1,2.066-1.1Zm6.564,35.6a5.615,5.615,0,0,0-1.768,1.4,11.082,11.082,0,0,0-.954,3.1s-3.764-.814-5.9,2.066V96.14s4.2,3.9,5.234,4.788l3.387,3.168c-.07.735,0,.814,0,.814Zm-17.688,9.365s-1.1-.446-1.917-.665a4.255,4.255,0,0,0-2.136.3,7.047,7.047,0,0,0,1.4-3.536H57.94a29.36,29.36,0,0,0-3.02,2.214c-.954.954-.735,1.7-.735,1.7Zm-4.131-5.453V81.62l1.768,2.066v23.439H59.7V92.455l1.768,2.284v14.082H50.036Zm2.95-2.8v-21.3l5.531,6.564V106.03H52.994Zm-7.518-3.834s1.47-2.363-.516-6.048a7.127,7.127,0,0,0-5.383-3.9,17.051,17.051,0,0,0-.219-2.363,4.637,4.637,0,0,0-1.768-2.5l10.835-7.081v20.349a5.217,5.217,0,0,0-2.95,1.549Zm2.95.735v2.363a2.893,2.893,0,0,1-1.549-.954c-.3-.219-.07-.735-.07-.954a1.668,1.668,0,0,1,1.619-.446Zm-7.518-4.866c-.516-1.182-3.466-3.02-3.466-3.02s3.466-1.619,5.234,1.1a6.465,6.465,0,0,1-.814,8.253A12.062,12.062,0,0,0,40.907,98.057Zm6.267-35.386a6.6,6.6,0,0,1,1.33-1.987v3.982c-.586-.446-1.4-1.182-1.33-1.987Zm1.33-5.9h-.07a21.748,21.748,0,0,1-2.214,3.982c-1.182.07-.954-1.033-1.182-2.066,0,0-1.1-4.569-3.764-.446-.3.368-.3,1.033-.884.954-.368-.3-1.033-.954-.735-1.4L41.94,55.73A20.2,20.2,0,0,1,45.625,51.9H48.5v4.866Zm-9.8.3c-1.182,0-3.387-2.8-3.1-3.02.814-.586,3.317-1.987,3.317-1.987h5.015c-1.33,1.33-4.28,4.2-5.234,5.015Zm11.352,58.089c2.652-.586,5.9.884,5.9.884a2.33,2.33,0,0,1,.368-3.317c1.7-1.7,5.82-.149,6.267,2.136,0,0-3.9.884-5.531,2.582a8.729,8.729,0,0,0-2.066,3.317,21.1,21.1,0,0,1,5.453-3.247,9.222,9.222,0,0,1,5.3.219,43.294,43.294,0,0,0-5.3,4.42,70.822,70.822,0,0,0-4.788,5.82,29.387,29.387,0,0,0-4.2-5.383,50.053,50.053,0,0,0-5.6-4.866,8.4,8.4,0,0,1,4.2-2.582Zm14.45-.219c-.219-.884-.516-1.917-.516-1.917a6.719,6.719,0,0,1,2.5-1.549c1.917-.735,4.647-.446,7.221,1.549,0,0-3.317,1.917-4.788,2.731A8.829,8.829,0,0,0,64.5,114.94Zm17.986-12.6c1.47-1.4,2.214-1.619,3.387-1.7a6.028,6.028,0,0,1,2.5,2.652,8.372,8.372,0,0,1-1.4,3.02c-.149.149-5.68,3.1-5.68,3.1-.884-2.066-.3-5.68,1.182-7.081Zm5.531-2.363s-.07-1.7.735-2.284a15.787,15.787,0,0,1-2.95,1.252,3.953,3.953,0,0,1,.3-3.9A6.152,6.152,0,0,1,89.2,92.6a4.863,4.863,0,0,0-3.1.446c-1.619.814-2.582,3.466-2.582,3.466s-3.764-1.252-6.932.368a9.673,9.673,0,0,1,2.8-7.081c.884-.735,1.7-1.47,2.582-2.136A10.06,10.06,0,0,1,84.7,86.635a5.054,5.054,0,0,0,2.136,1.847,16.528,16.528,0,0,0,4.936,1.1,8.333,8.333,0,0,1,.446,4.936,65.007,65.007,0,0,1-2.284,7.3l-1.917-1.847Zm5.6-13.2c-1.4-3.466-4.788-3.168-3.317-1.182,0,0,1.619.586,1.252,1.917s-4.936,1.4-4.35-2.871c.516-4.35,4.936-4.569,7.151-2.136,2.214,2.363,5.015,9.365,1.917,14.669-2.582,4.42-3.168,4.42-5.015,6.118C93.325,99.238,95.023,90.171,93.623,86.775Zm3.247-3.387s1.987-2.871.149-5.085c-1.768-2.214-4.131-.368-2.8,1.1,0,0,.586-1.619,1.47-.3s-1.4,3.02-2.652,1.182,1.33-6.7,4.35-3.168c3.1,3.536,2.731,3.9,3.1,6.267S99.3,91.422,99.3,91.422C99.084,88.622,97.9,84.718,96.87,83.388ZM64.066,15c3.615,1.33,9.8,3.466,15.115,3.536,5.3.149,11.352-.446,14.371-1.33.954.586.07,1.47-.368,2.136s-5.383,3.685-15.037,2.5c-9.733-1.182-12.315-3.247-13.12-3.685s-.149-.368-.149-.368l1.917-.446-3.168-2.066.446-.3ZM66.2,20.012,62.666,24.66H60.3l2.214-6.415Zm-9.514-4.788a32.562,32.562,0,0,0,4.35,2.284L59.419,24.66h-2.8s-.368-9,.07-9.435Zm4.788,11.719V38.961H76V50.392H61.475V78.408l-1.768-1.252V48.624h14.3V40.808h-14.3V29.01H51.892v11.8H37.52v7.816h14.3V71.178l-1.768-1.47V50.243H35.9V38.891H50.132V26.953H61.484ZM54.99,11.61s.446-2.433.735-2.433v4.5L53.66,14.857A13.017,13.017,0,0,0,54.99,11.61Zm.219,3.834c0,.814.07,9.216.07,9.216h-1.7S51.594,18.691,51.3,17.29c1.1-.446,2.582-1.33,3.9-1.847ZM52.776,24.66H48.645a1.674,1.674,0,0,1-.368-.735c-.446-.884-1.847-3.387-2.363-4.28.884-.368,3.536-1.47,4.569-1.987.735,2.363,2.284,7,2.284,7Zm-33.1-7.3.586-.07c7.886,2.214,18.721,1.47,28.235-3.615.735-.368,1.033-.3,1.33.368.219.665,0,1.33-1.33,2.136a28.528,28.528,0,0,1-14.6,4.936c-7.965.368-11.054-.07-14.371-2.284l.149-1.47ZM12.891,38.147c-.446-.368-.149-1.1.884-1.1s2.066.07,3.764,1.917,2.95,4.28,1.847,7.221c-.3.814-.665.954-.735-.3a8.274,8.274,0,0,0-1.033-3.9c-2.136-3.764-4.28-3.387-4.718-3.834Zm6.415-.814C13.259,31,4.935,35.635,8.1,39.18c0,0,2.652-.814,2.95.446.516,2.433-4.131,3.834-5.68-.368-1.549-4.131,1.619-5.531,3.9-7.369a13.987,13.987,0,0,0,3.536-4.936l1.4.586,3.1-1.47a20.125,20.125,0,0,1-4.052,5.015,14.487,14.487,0,0,1,7.221,4.2c3.387,3.536,5.085,9.584,2.582,18.87a43.371,43.371,0,0,1-6.7,14.231c-1.252,1.549-1.917-.516-1.917-.516,3.834-5.9,10.914-24.1,4.866-30.519ZM9.653,38c-.219.3-.586.3-.954.3-.149-.149-.219-.446-.07-.586.446-.446,1.033-.219,1.033.3ZM18.79,75.817c3.317,1.987-1.252,6.7-2.8,5.015s.665-2.8.665-2.8-.3-.814-1.768.735.446,3.834.446,3.834c-1.549,1.619-2.8,5.6-2.433,9.8,0,0-2.95-6.853-.735-12.455,1.1-2.731,3.317-6.118,6.634-4.131ZM97.378,104.35C86.1,114.669,68.994,115.78,55.8,134.72c-12.166-18.284-29.635-20.2-41.057-29.854C6.126,97.558.743,86.722,3.693,74.784c1.33-5.453,9.514-4.5,8.849.814-.516,4.5-5.531,3.536-5.3.586s3.834-1.7,2.731.665c0,0,1.1.814,1.182-1.768.07-2.433-4.718-3.168-5.68.516a5.453,5.453,0,0,0,.814,4.28A31.116,31.116,0,0,0,17.049,103.4c11.133,9.8,28.6,11.719,38.7,28.384,11.054-17.47,28.751-19.168,39.289-28.673,13.934-12.6,10.021-25.356,10.021-25.356s1.252-.665.446-3.02c-.954-3.1-5.234-2.731-5.453-.219a1.257,1.257,0,0,0,.954,1.47c-.516-1.917,2.731-2.95,2.95.07.219,2.95-5.75,3.168-5.531-1.33s7.965-5.6,9.286-.219c3.02,11.938-1.987,22.187-10.319,29.854ZM9.513,80.9c-.219.219-.368.586-.735.735-.516,0-.735-.446-.735-.884.07-1.1,1.917-1.182,1.47.149Zm94.438.07a1.427,1.427,0,0,1-1.1.516c-.446-.3-.586-.665-.3-1.1.07-.446.516-.516.884-.516C104.169,79.939,103.8,80.535,103.951,80.972Z" transform="translate(0.008 30.085)" fill="#fff"/><path d="M84.369,33.914c1.4-.814,2.5-2.066,3.9-2.582.3-.516,1.47-.446.954-1.182l-.814.516c-.884-.07-4.866,3.02-5.453,3.764.516.219.884-.3,1.4-.516Z" transform="translate(-10.344 27.238)" fill="#fff"/><path d="M115.15,123.142l.884,6.932,1.847-1.182-.219-1.252,2.363-1.549,1.033.665,1.847-1.182-5.969-3.615-1.768,1.182Zm3.764,2.214-1.549,1.033L117,124.026l1.917,1.33Z" transform="translate(-14.36 15.783)" fill="#fff"/><path d="M26.962,29.222c-.368-.07-1.033-.149-1.182.219,1.768.735,15.185,7,16.8,7.816a3.464,3.464,0,0,0,2.731.954c.07-.3-.3-.446-.368-.735A30.151,30.151,0,0,1,41.779,36C40.676,35.339,27.548,29.668,26.962,29.222Z" transform="translate(-3.209 27.362)" fill="#fff"/><path d="M36.655,27.7c-.149-.07-.586-.219-.516.149.814,1.252,2.066,1.619,3.02,2.582a1.125,1.125,0,0,1,.954.665c1.033.516,1.917,1.252,2.871,1.768.665.07.735,1.1,1.47.814v-.368c-1.33-1.4-3.168-2.214-4.718-3.387-1.033-.446-1.987-1.549-3.1-2.214Z" transform="translate(-4.501 27.555)" fill="#fff"/><path d="M272.751,39.588l-2.993-2.258c-5-3.842-8.175-6.634-10.048-9.015a10.141,10.141,0,0,1-2.477-6.984c.044-6.678,4.954-9.347,11.781-9.435,9.444.044,10.6,3.895,11.107,4.683a15.982,15.982,0,0,1,1.217,4.551,4.874,4.874,0,0,0,.376,1.462,2.193,2.193,0,0,0,1.917,1.1,2.14,2.14,0,0,0,1.357-.534c.884-1.015.744-1.812.8-3.142a52.555,52.555,0,0,1,1.462-11.746,1.946,1.946,0,0,0-.8-1.637,3.02,3.02,0,0,0-1.733-.446,17.322,17.322,0,0,1-3.457-.49A45.484,45.484,0,0,0,270.974,4.64c-7.107,0-12.988,1.943-17.155,5.391a18.054,18.054,0,0,0-6.494,14.24c-.044,7.291,2.941,14.188,14.485,23.08l4.814,3.755c9.207,7.247,10.739,10.7,10.783,17.242-.1,5.882-3.352,11.115-12.883,11.159a18.647,18.647,0,0,1-9.3-2.171,10.455,10.455,0,0,1-5.19-7.116,16.433,16.433,0,0,1-.28-3.492,2.661,2.661,0,0,0-.324-1.549,2.105,2.105,0,0,0-1.873-.928A2.149,2.149,0,0,0,245.68,65.4a5.329,5.329,0,0,0-.42,1.68c-.1,1.593-.56,6.748-.56,11.877a9.289,9.289,0,0,0,.324,3.186,3.659,3.659,0,0,0,2.057,1.9l.656-1.19-.6,1.19a35.3,35.3,0,0,0,15,2.871c5.978,0,12.1-1.234,17.015-4.507a22,22,0,0,0,9.724-17.951c.14-8.49-3.317-15.43-16.122-24.892Z" transform="translate(-30.523 30.421)" fill="#fff"/><path d="M300.358,10.342a2.7,2.7,0,0,0,1.348.35,24.375,24.375,0,0,1,3.3.263c1.628.35,2.319.753,2.74,1.322a6.163,6.163,0,0,1,.788,3.212c.236,3.168.236,5.987.236,21.75V55.023c0,9.689,0,17.7-.508,21.793a13.425,13.425,0,0,1-.788,3.343c-.368.753-.6.928-1.164,1.059a15.155,15.155,0,0,1-2.932.394,2.487,2.487,0,0,0-1.628.525,1.9,1.9,0,0,0-.648,1.409,2.093,2.093,0,0,0,1.208,1.847,4.7,4.7,0,0,0,1.908.306c3.256,0,10.039-.306,10.459-.306s7.247.306,13.1.306a4.808,4.808,0,0,0,1.952-.35,1.966,1.966,0,0,0,1.164-1.759,1.9,1.9,0,0,0-.648-1.409,2.487,2.487,0,0,0-1.628-.525,27.878,27.878,0,0,1-3.562-.394,2.428,2.428,0,0,1-2.136-1.19,8.553,8.553,0,0,1-.84-3.168c-.508-4.1-.508-11.107-.508-20.8V47.96c3.063,0,12.026.044,14.258.306,2.792.35,4.044,1.847,4.367,2.774a15.359,15.359,0,0,1,.56,3.256,2.214,2.214,0,0,0,.42,1.322,1.984,1.984,0,0,0,1.715.84,2.069,2.069,0,0,0,1.488-.613,3.854,3.854,0,0,0,.7-2.643c0-.569.236-4.709.42-6.652.324-3.343.84-6.7.884-7.807a2.294,2.294,0,0,0-.28-1.234,1.888,1.888,0,0,0-1.672-.928,2.262,2.262,0,0,0-1.628.753c-.28.306-.464.569-.648.8l-.044.044-.044.044a2.281,2.281,0,0,1-1.164.84,15.621,15.621,0,0,1-2.7.438c-1.392.088-2.88.088-4.691.088l-11.973.088V14.421l14.905.306c3.72.044,5.715,1.8,6,2.468a9.285,9.285,0,0,1,.84,3.3,3,3,0,0,0,.324,1.5,2.1,2.1,0,0,0,1.812,1.059,2.23,2.23,0,0,0,1.812-1.015,2.935,2.935,0,0,0,.42-1.147c.236-1.453.464-5.855.56-6.827.28-2.774.788-4.612.884-5.882a1.849,1.849,0,0,0-.28-1.5,1.935,1.935,0,0,0-1.672-.884c-1.348.131-1.628.656-1.952.656a27.622,27.622,0,0,1-4.324.35c-1.287.053-23.036.088-26.161.088-2.328,0-7.247-.306-12.087-.306a4.874,4.874,0,0,0-1.908.306,1.919,1.919,0,0,0-1.208,1.847,1.946,1.946,0,0,0,.884,1.584Z" transform="translate(-37.36 30.277)" fill="#fff"/><path d="M186.373,87.48h.044c12.63,0,23.176-4.928,30.484-12.822,7.352-7.938,11.474-18.783,11.474-30.624s-4.429-22.371-11.833-29.32S198.775,4,187.039,4c-14.4,0-24.9,6.1-31.631,14.389a44.41,44.41,0,0,0-9.838,27.264c0,9.549,2.967,19.955,9.61,28.069,6.6,8.113,16.927,13.767,31.193,13.767ZM167.206,19.457c4.805-5.12,11.562-7.737,19.421-7.737,14.66.044,28.305,11.956,28.384,35.132,0,14.065-4.42,22.1-9.733,26.7A24.88,24.88,0,0,1,189.34,79.4c-16.787-.044-29.872-14.021-29.916-36.506,0-10.582,2.976-18.319,7.781-23.439Z" transform="translate(-18.155 30.501)" fill="#fff"/><path d="M365.086,141.367a1.023,1.023,0,0,0-1.05-.823,1.306,1.306,0,0,0-1.138.6,2.293,2.293,0,0,0-.271.867,8.008,8.008,0,0,1-1.418,3.282c-1.462,1.505-3.79,1.961-7.116,1.917a15.238,15.238,0,0,1-15.238-15.422c0-4.472.727-8.122,3.737-10.993,1.418-1.365,3.834-3.011,9.628-3.011,3.737,0,7.072,1.234,8.35,2.328a5.384,5.384,0,0,1,1.549,3.834,3.916,3.916,0,0,0,.088,1.007,1.282,1.282,0,0,0,2.424.088,3.72,3.72,0,0,0,.184-1.05c.044-.779.044-3.195.14-4.6.087-1.593.228-2,.228-2.556a1.325,1.325,0,0,0-.411-1.007,1.907,1.907,0,0,0-1.094-.455,38.648,38.648,0,0,1-4.472-.683,40.062,40.062,0,0,0-6.7-.551c-7.116,0-11.544,2.188-14.371,5.068a19.1,19.1,0,0,0-5.339,12.953c0,4.429,1.138,9.855,5.75,14,3.694,3.378,8.534,5.111,15.422,5.111h.044c2.967,0,6.389-.271,8.437-1.094a2.556,2.556,0,0,0,1.733-1.917,49.632,49.632,0,0,0,1.05-6.022A2.926,2.926,0,0,0,365.086,141.367Z" transform="translate(-41.514 16.76)" fill="#fff"/><path d="M450.505,145.862a1.222,1.222,0,0,0-1.2-.893,1.408,1.408,0,0,0-1.1.586,2.447,2.447,0,0,0-.236.718c-.289,1.392-.481,1.567-1.1,1.838a11.415,11.415,0,0,1-3.2.315c-1.82.044-2.731-.175-2.923-.359-.14-.088-.333-.4-.429-1.61v-8.332c1.339,0,3.825.088,4.5.175,1.2.228.91.271,1.1.534a2.824,2.824,0,0,1,.1.893,1.475,1.475,0,0,0,.236.805,1.187,1.187,0,0,0,1.05.49,1.3,1.3,0,0,0,1.243-.989,1.739,1.739,0,0,0,.044-.674c0-.14.1-1.523.14-2.153.1-1.164.289-1.523.289-2.066a1.078,1.078,0,0,0-.236-.761,1.408,1.408,0,0,0-.954-.49c-1.05.175-1.05.586-1.339.805l-.14.044a8.064,8.064,0,0,1-.91.131c-.578.044-3.589.044-5.12.044V126.4c1.339,0,3.877.044,4.21.088,2.013.315,1.628.359,1.864.63a3.09,3.09,0,0,1,.14.893,1.452,1.452,0,0,0,.193.805,1.364,1.364,0,0,0,1.146.63,1.228,1.228,0,0,0,1.1-.63,2.116,2.116,0,0,0,.193-.534c.1-.586.14-2.109.193-2.424.1-.945.289-1.12.289-1.75a1.58,1.58,0,0,0-.1-.586,1.2,1.2,0,0,0-1.1-.718,1.54,1.54,0,0,0-.718.175,8.654,8.654,0,0,1-1.488.131c-.77.044-8.332.044-8.568.044,0,0-.674-.044-1.488-.088-.858,0-1.864-.044-2.731-.044a2.427,2.427,0,0,0-.91.131,1.229,1.229,0,0,0-.718,1.077,1.321,1.321,0,0,0,1.339,1.164,6.65,6.65,0,0,1,1.05.088c.91.315.621,0,.858,1.12.044,1.077.044,2.066.044,7.571v6.188a73.837,73.837,0,0,1-.193,7.527,1.253,1.253,0,0,1-.954,1.164,8.435,8.435,0,0,1-1.82,0c-.525-.088-1.164-.175-3.273-2.241-2.013-1.969-4.359-4.884-7.177-8.288,3.02-2.827,4.21-5.558,4.21-8.245a7,7,0,0,0-3.02-5.6c-2.293-1.523-5.076-1.75-7.518-1.75-1.2,0-4.114.088-4.455.088-.1,0-2.538-.088-4.262-.088a2.428,2.428,0,0,0-.91.131,1.229,1.229,0,0,0-.718,1.077,1.276,1.276,0,0,0,1.339,1.164,6.114,6.114,0,0,1,1.05.088c.91.315.621,0,.814,1.12.044,1.077.1,2.066.044,7.571v6.188a74.312,74.312,0,0,1-.193,7.527,3.025,3.025,0,0,1-.236,1.033.153.153,0,0,1-.044.088,3.852,3.852,0,0,1-.91.131,1.474,1.474,0,0,0-.91.315.967.967,0,0,0-.385.849,1.2,1.2,0,0,0,.718,1.077,2.428,2.428,0,0,0,.91.131c.578,0,1.488-.044,2.206-.044.718-.044,1.339-.044,1.339-.044.044,0,.674.044,1.575.044.91.044,2.013.044,3.063.044a2.769,2.769,0,0,0,.954-.175,1.2,1.2,0,0,0,.674-1.077,1.068,1.068,0,0,0-.385-.849,1.362,1.362,0,0,0-.954-.315c-.236,0-1.05-.088-1.532-.131-.333-.044-.289-.087-.385-.175a1.88,1.88,0,0,1-.236-.893,75.4,75.4,0,0,1-.193-7.571v-.131l3.685.044c.674.849,2.389,3.133,3.974,5.068,2.153,2.643,3.448,4.437,5.409,5.47a5.585,5.585,0,0,0,3.16.805h4.709c.621,0,1.2-.044,1.961-.088h1.435c.525,0,1.435.044,2.871.088,1.488.044,3.588.088,6.415.088a5.287,5.287,0,0,0,1.864-.175,1.912,1.912,0,0,0,1.147-1.435,26.876,26.876,0,0,0,.525-3.676c.044.044.044-.131-.044-.446Zm-31.657-9.006a4.056,4.056,0,0,1-2.249.49,11.518,11.518,0,0,1-3.2-.359V126.231a18.223,18.223,0,0,1,1.82-.088c3.448.088,5.356,2.013,5.505,6.092-.044,2.468-.954,4.035-1.864,4.613Z" transform="translate(-50.525 15.679)" fill="#fff"/><path d="M399.09,149.2a6.274,6.274,0,0,0-1.357-.324c-.481-.14-1.724-.324-3.133-3.457-2.328-5.488-8.306-20.48-8.892-21.907a7.723,7.723,0,0,0-.586-1.243,1.424,1.424,0,0,0-1.217-.691,1.5,1.5,0,0,0-1.26.735,9.748,9.748,0,0,0-.586,1.3l-8.691,22.555c-.727,1.8-1.26,2.626-2.381,2.766a8.272,8.272,0,0,1-.971.1,1.707,1.707,0,0,0-.779.184,1.159,1.159,0,0,0-.586,1.015,1.283,1.283,0,0,0,.823,1.155,2.327,2.327,0,0,0,.919.14c1.847,0,3.982-.1,4.324-.1s2,.1,2.967.1a1.676,1.676,0,0,0,.875-.184,1.251,1.251,0,0,0,.726-1.1,1.085,1.085,0,0,0-.586-1.015,1.6,1.6,0,0,0-.823-.184h-.385a.683.683,0,0,1-.385-.1,6.176,6.176,0,0,1,.481-2.074l2.136-5.146h7.291l3.352,7.5a1.3,1.3,0,0,0-.534.971,1.174,1.174,0,0,0,.534.972,3.206,3.206,0,0,0,1.6.28c2.669.1,5.514.1,6.092.1a1.826,1.826,0,0,0,.919-.184,1.186,1.186,0,0,0,.726-1.1,1.122,1.122,0,0,0-.63-1.015Zm-18.144-11.063,2.328-7.229,2.529,7.229Z" transform="translate(-45.988 15.831)" fill="#fff"/><path d="M206.666,144.8a1.283,1.283,0,0,0-1.1.6,1.533,1.533,0,0,0-.236.726c-.289,1.409-.481,1.593-1.1,1.864a11.442,11.442,0,0,1-3.212.315c-1.82.044-2.731-.184-2.923-.368-.193-.088-.385-.411-.429-1.637v-8.464c1.339.044,3.834.088,4.5.184,1.2.228.91.271,1.1.543a2.934,2.934,0,0,1,.1.91,1.285,1.285,0,0,0,.236.77,1.194,1.194,0,0,0,1.05.5,1.265,1.265,0,0,0,1.243-1,4.331,4.331,0,0,0,.044-.683c0-.14.1-1.549.14-2.188.1-1.182.289-1.549.289-2.092a1.1,1.1,0,0,0-.236-.77,1.429,1.429,0,0,0-1.007-.5c-1.05.184-1.05.6-1.339.823l-.14.044c-.193.044-.481.088-.91.14-.578.044-3.588.044-5.076.044v-8.647c1.339,0,3.877.044,4.262.088,2.013.315,1.628.368,1.82.639a2.794,2.794,0,0,1,.14.91,1.448,1.448,0,0,0,.193.823,1.3,1.3,0,0,0,1.147.639,1.231,1.231,0,0,0,1.1-.639,1.977,1.977,0,0,0,.193-.5c.1-.639.193-2.188.193-2.459.1-.954.289-1.138.289-1.777a1.508,1.508,0,0,0-.1-.6,1.2,1.2,0,0,0-1.1-.726,1.51,1.51,0,0,0-.718.184,7.936,7.936,0,0,1-1.488.14c-.77.044-8.332.044-8.577.044,0,0-.674-.044-1.488-.088-.858,0-1.864-.044-2.774-.044a2.287,2.287,0,0,0-.91.14,1.115,1.115,0,0,0-.718,1.094,1.286,1.286,0,0,0,1.339,1.182,6.652,6.652,0,0,1,1.05.088c.91.315.621,0,.866,1.138.044,1.094.1,2.092.044,7.693v6.284c0,3.413,0,6.284-.193,7.65a3.1,3.1,0,0,1-.236,1.05.153.153,0,0,1-.044.088c-.289.044-.718.14-.91.14a1.249,1.249,0,0,0-.91.315.987.987,0,0,0-.385.867,1.22,1.22,0,0,0,.718,1.094,2.287,2.287,0,0,0,.91.14c.621,0,1.488-.044,2.249-.088h1.435c.525,0,1.435.044,2.871.088s3.492.088,6.223.088h.193a5.093,5.093,0,0,0,1.864-.184,1.923,1.923,0,0,0,1.147-1.453,27.486,27.486,0,0,0,.525-3.728,3.449,3.449,0,0,0-.044-.6,1.3,1.3,0,0,0-1.2-.823Z" transform="translate(-23.587 15.739)" fill="#fff"/><path d="M182.393,148.056c-.28,0-1.339-.1-1.891-.184-.464-.1-.508-.14-.648-.324a3.035,3.035,0,0,1-.28-1.3c-.228-1.8-.228-5.4-.228-9.733v-7.982c0-7.107,0-8.35.1-9.733a3.287,3.287,0,0,1,.28-1.339c.1-.14.14-.228.6-.324a4.62,4.62,0,0,1,.972-.1,1.322,1.322,0,0,0,1.339-1.243,1.344,1.344,0,0,0-.735-1.2,2,2,0,0,0-.971-.184c-1.383,0-4.289.14-4.429.14-.1,0-.831-.044-1.847-.1s-2.258-.1-3.273-.044a1.916,1.916,0,0,0-.972.184,1.284,1.284,0,0,0,.648,2.442,8.441,8.441,0,0,1,1.3.1c1.155.411.972.184,1.2,1.663.1,1.383.1,2.678.1,9.733v.228h-17.8v-.228c0-7.107,0-8.35.1-9.733a2.662,2.662,0,0,1,.28-1.339c.1-.14.14-.228.6-.324a6,6,0,0,1,.971-.14,1.386,1.386,0,0,0,1.383-1.243,1.344,1.344,0,0,0-.735-1.2,1.916,1.916,0,0,0-.971-.184c-1.383,0-4.289.14-4.429.14-.1,0-.831-.044-1.847-.1s-2.258-.1-3.273-.044a1.916,1.916,0,0,0-.971.184,1.328,1.328,0,0,0-.735,1.2A1.29,1.29,0,0,0,147.6,117a8.446,8.446,0,0,1,1.3.1c1.2.411.972.184,1.2,1.663.1,1.383.1,2.678.1,9.733v7.982c0,4.332,0,7.982-.228,9.733a5.077,5.077,0,0,1-.324,1.383c-.14.28-.14.228-.228.228a6.089,6.089,0,0,1-1.155.184,1.756,1.756,0,0,0-.971.324,1.2,1.2,0,0,0-.411.919,1.4,1.4,0,0,0,.735,1.2,2,2,0,0,0,.972.184c1.383,0,4.289-.14,4.472-.14.14,0,3.09.14,5.584.14a2.15,2.15,0,0,0,1.015-.228,1.26,1.26,0,0,0,.691-1.155,1.207,1.207,0,0,0-.411-.919,1.3,1.3,0,0,0-.972-.324c-.28,0-1.339-.1-1.891-.184-.464-.1-.508-.14-.648-.324a3.035,3.035,0,0,1-.28-1.3c-.228-1.8-.228-5.4-.228-9.776v-4.009h17.8v4.009c0,4.332,0,7.982-.228,9.733a5.076,5.076,0,0,1-.324,1.383c-.14.28-.14.228-.228.228a5.6,5.6,0,0,1-1.155.184,1.757,1.757,0,0,0-.972.324,1.378,1.378,0,0,0-.411.919,1.4,1.4,0,0,0,.735,1.2,2,2,0,0,0,.972.184c1.383,0,4.289-.14,4.429-.14s3.09.14,5.584.14a2.15,2.15,0,0,0,1.015-.228,1.26,1.26,0,0,0,.691-1.155,1.3,1.3,0,0,0-.411-.919,1.483,1.483,0,0,0-.971-.228Z" transform="translate(-18.236 16.732)" fill="#fff"/><path d="M328.2,149.558a1.815,1.815,0,0,0-1.129-.315c-.236,0-1.085-.088-1.514-.14-.333-.088-.28-.088-.376-.184a1.937,1.937,0,0,1-.236-.91c-.193-1.409-.193-4.219-.193-7.623v-6.267c0-5.584,0-6.582.1-7.667a2.3,2.3,0,0,1,.193-.954c.044-.088,0-.088.333-.184.429-.044.613-.088.753-.088a1.307,1.307,0,0,0,1.322-1.182,1.214,1.214,0,0,0-.709-1.085,2.208,2.208,0,0,0-.893-.14c-1.129,0-4,.088-4.1.088s-2.5-.088-4.2-.088a2.208,2.208,0,0,0-.893.14c-.376.14-.805.726-.709,1.085a1.276,1.276,0,0,0,1.322,1.182,5.826,5.826,0,0,1,.989.088c.893.315.613,0,.849,1.138.1,1.085.1,2.092.1,7.623H305.039c0-5.584,0-6.538.044-7.623a2.3,2.3,0,0,1,.193-.954q.044-.088.376-.184a3.07,3.07,0,0,1,.753-.088,1.276,1.276,0,0,0,1.322-1.182,1.214,1.214,0,0,0-.709-1.085,2.208,2.208,0,0,0-.893-.14c-1.129,0-3.536.088-3.632.088s-2.5-.088-4.2-.088a2.208,2.208,0,0,0-.893.14,1.276,1.276,0,0,0-.709,1.085,1.313,1.313,0,0,0,1.322,1.182,6.53,6.53,0,0,1,1.042.088c.893.315.613,0,.849,1.138.1,1.085.1,2.092.1,7.667v6.267a76.193,76.193,0,0,1-.193,7.623,2.978,2.978,0,0,1-.236,1.042.153.153,0,0,1-.044.088c-.28.044-.709.14-.893.14a1.21,1.21,0,0,0-.893.315,1.071,1.071,0,0,0-.376.866,1.214,1.214,0,0,0,.709,1.085,2.208,2.208,0,0,0,.893.14c1.129,0,3.536-.088,3.632-.088.044,0,.665.044,1.558.044.893.044,1.987.044,3.02.044a1.919,1.919,0,0,0,.945-.184,1.337,1.337,0,0,0,.709-1.085,1.133,1.133,0,0,0-.376-.867,1.284,1.284,0,0,0-.893-.315c-.228,0-1.085-.088-1.558-.14-.333-.088-.28-.088-.376-.184a1.973,1.973,0,0,1-.236-.91c-.193-1.409-.193-4.219-.193-7.623V137.83h14.161v2.547a76.217,76.217,0,0,1-.193,7.623,3.268,3.268,0,0,1-.236,1.042.136.136,0,0,0-.044.088c-.28.044-.709.14-.893.14a1.21,1.21,0,0,0-.893.315,1.071,1.071,0,0,0-.376.867,1.158,1.158,0,0,0,.709,1.085,2.208,2.208,0,0,0,.893.14c1.129,0,3.536-.088,3.632-.088.044,0,1.12.044,2.013.044.893.044,1.987.044,3.02.044a1.919,1.919,0,0,0,.945-.184,1.337,1.337,0,0,0,.709-1.085,1.035,1.035,0,0,0-.429-.866Z" transform="translate(-37.009 15.676)" fill="#fff"/><path d="M240.972,149.188a1.74,1.74,0,0,0-.726-.14,4.262,4.262,0,0,1-1.208-.184c-.481-.184-1.26-.324-2.608-3.457-2.319-5.488-8.315-20.48-8.849-21.863A8.7,8.7,0,0,0,227,122.3a1.42,1.42,0,0,0-1.208-.691,1.6,1.6,0,0,0-1.26.735,8.877,8.877,0,0,0-.578,1.3L215.3,146.195c-.726,1.8-1.26,2.626-2.372,2.766a8.134,8.134,0,0,1-.963.1,1.674,1.674,0,0,0-.77.184,1.135,1.135,0,0,0-.578,1.015,1.283,1.283,0,0,0,.823,1.155,2.224,2.224,0,0,0,.919.14c1.785,0,3.965-.1,4.306-.1s1.987.1,2.95.1a2.2,2.2,0,0,0,.866-.14,1.266,1.266,0,0,0,.726-1.1,1.2,1.2,0,0,0-.578-1.015,1.582,1.582,0,0,0-.823-.184h-.385a.683.683,0,0,1-.385-.1,6.175,6.175,0,0,1,.481-2.074l2.179-5.19h7.256l3.335,7.5a1.3,1.3,0,0,0-.534.972,1.116,1.116,0,0,0,.578.972,3.092,3.092,0,0,0,1.593.28c2.661.1,5.461.1,6.048.1a1.975,1.975,0,0,0,.866-.14,1.247,1.247,0,0,0,.919-1.155,1.585,1.585,0,0,0-.77-1.059Zm-18.135-11.221,2.319-7.229,2.512,7.229Z" transform="translate(-26.271 15.828)" fill="#fff"/><path d="M290.079,122.539a6.668,6.668,0,0,0-1.208.184,21.158,21.158,0,0,1-2.424.184H272.714c-.376,0-1.768-.088-2.792-.184-.884-.044-.648-.271-1.724-.4a1.247,1.247,0,0,0-.928.455,6.233,6.233,0,0,0-.42.858,37.9,37.9,0,0,0-.84,4.017,1.512,1.512,0,0,0,.184.726,1.3,1.3,0,0,0,1.024.586,1.464,1.464,0,0,0,1.3-1,5.306,5.306,0,0,1,.508-.9c.28-.455.6-.63,2.932-.674l4.376-.044v14.047c0,3.387,0,6.232-.184,7.588a3.333,3.333,0,0,1-.236,1.042.136.136,0,0,0-.044.088c-.28.044-.7.131-.884.131a1.351,1.351,0,0,0-.928.315,1.252,1.252,0,0,0-.376.858,1.206,1.206,0,0,0,.7,1.085,2.3,2.3,0,0,0,.884.131c1.12,0,3.492-.088,3.58-.088s2.468.088,4.516.088a2.48,2.48,0,0,0,.928-.184,1.322,1.322,0,0,0,.7-1.085,1.115,1.115,0,0,0-.376-.858,1.251,1.251,0,0,0-.884-.315c-.236,0-1.068-.087-1.532-.131-.324-.044-.28-.088-.376-.184a1.727,1.727,0,0,1-.184-.9c-.184-1.4-.184-4.2-.184-7.588V126.337l3.58.044a7.823,7.823,0,0,1,3.072.5c.42.228.376.315.464.63l.044.359a2.764,2.764,0,0,0,.184.814,1.184,1.184,0,0,0,1.12.63,1.113,1.113,0,0,0,1.024-.586,1.616,1.616,0,0,0,.236-.858c0-.315.1-2.8.1-3.93a2.941,2.941,0,0,0-.044-.543,1.335,1.335,0,0,0-1.164-.858Z" transform="translate(-33.182 15.739)" fill="#fff"/><path d="M265.449,144.763a1.269,1.269,0,0,0-1.094.586,1.9,1.9,0,0,0-.236.726,4.084,4.084,0,0,1-.761,1.68c-.429.543-1.715.726-3.763.726-2.906,0-3.571-.315-3.764-.543a1.188,1.188,0,0,1-.14-.359c-.289-.91-.385-3.221-.385-7.116V134.12c0-5.575,0-6.573.1-7.658a2.3,2.3,0,0,1,.193-.954c.044-.044.044-.088.429-.184.385-.044.9-.088,1.05-.088a1.315,1.315,0,0,0,1.33-1.182,1.207,1.207,0,0,0-.718-1.085,2.269,2.269,0,0,0-.9-.14c-1.147,0-3.956.088-4.052.088s-2.529-.088-4.245-.088a2.227,2.227,0,0,0-.9.14c-.385.14-.814.726-.718,1.085a1.283,1.283,0,0,0,1.33,1.182,5.438,5.438,0,0,1,1,.088c.9.315.621,0,.858,1.129.044,1.085.044,2.083.044,7.658v6.249c0,3.4,0,6.249-.193,7.615a3.034,3.034,0,0,1-.236,1.042.153.153,0,0,1-.044.088c-.289.044-.718.14-.9.14a1.434,1.434,0,0,0-.9.315,1.15,1.15,0,0,0-.429.858,1.207,1.207,0,0,0,.718,1.085,2.269,2.269,0,0,0,.9.14c.621,0,1.427-.044,2.188-.087h1.479c1.05,0,2.188.044,3.764.087s3.571.088,6.293.088a5.264,5.264,0,0,0,2.241-.271,1.9,1.9,0,0,0,1.094-1.4,22.045,22.045,0,0,0,.621-3.851,2.5,2.5,0,0,0-.1-.77,1.316,1.316,0,0,0-1.147-.683Z" transform="translate(-30.792 15.675)" fill="#fff"/><path d="M365.579,15.782h.858a2.738,2.738,0,0,1,1.26.2,1.6,1.6,0,0,1,.6,1.453v.8h1.059l-.07-.07c-.07-.07-.07-.131-.07-.333V16.9a1.485,1.485,0,0,0-.333-.989,1.438,1.438,0,0,0-1.059-.6,2.624,2.624,0,0,0,.928-.333,1.458,1.458,0,0,0,.6-1.26,1.54,1.54,0,0,0-.989-1.584,5.55,5.55,0,0,0-1.724-.2H364.45v6.284h1.12V15.774Zm0-3.177h.928a3.077,3.077,0,0,1,1.322.263,1.26,1.26,0,0,1,.464.858,1.066,1.066,0,0,1-.665.989,3.973,3.973,0,0,1-1.059.131h-.989V12.6Z" transform="translate(-45.464 29.51)" fill="#fff"/><path d="M366.289,20.378a5.648,5.648,0,0,0,5.689-5.689,5.689,5.689,0,1,0-11.378,0,5.648,5.648,0,0,0,5.689,5.689Zm-3.51-9.129a4.621,4.621,0,0,1,3.37-1.453,4.566,4.566,0,0,1,3.44,1.453,4.462,4.462,0,0,1,1.453,3.44,4.961,4.961,0,0,1-1.453,3.51,4.462,4.462,0,0,1-3.44,1.453,4.785,4.785,0,0,1-3.44-1.453,4.89,4.89,0,0,1-1.392-3.51,4.683,4.683,0,0,1,1.453-3.44Z" transform="translate(-44.984 29.877)" fill="#fff"/></g></svg>